<svg width="50" height="50" viewBox="0 0 50 50" xmlns="http://www.w3.org/2000/svg">
    <g fill-rule="nonzero" fill="none">
        <path d="M22.181 19.139c1.887-.003 3.416-1.533 3.42-3.42-.023-.311-.281-.551-.593-.551-.311 0-.57.24-.593.551 0 1.229-.996 2.225-2.225 2.225s-2.225-.996-2.225-2.225.996-2.225 2.225-2.225c.326 0 .591-.265.591-.591 0-.326-.265-.591-.591-.591-1.246-.038-2.414.605-3.048 1.678-.634 1.073-.634 2.407 0 3.48s1.802 1.716 3.048 1.678l-.01-.01zM11.916 15.278l3.992.28v.292c-.001.891.188 1.772.553 2.584l-3.051 1.681c-.235.132-.352.406-.284.668.068.261.303.444.573.445.1-.002.198-.027.286-.073l3.058-1.691c.825 1.186 2.028 2.056 3.413 2.466l-.575 3.919c-.047.325.177.626.502.674h.086c.291-.003.537-.215.582-.502l.569-3.868c.212.019.424.029.636.029 1.313.002 2.593-.407 3.661-1.17l2.444 2.52c.148.152.365.213.57.161.205-.052.367-.21.424-.413.057-.204.002-.422-.146-.574l-2.409-2.46c1.14-1.178 1.777-2.753 1.777-4.392l4.281-.575c.309-.06.517-.351.475-.663-.042-.312-.32-.537-.634-.513l-4.233.572c-.198-1.045-.657-2.024-1.335-2.845l2.981-2.86c.215-.231.211-.59-.007-.817-.219-.227-.577-.244-.816-.038l-2.994 2.86c-.942-.788-2.095-1.284-3.315-1.427l.226-3.922c.018-.326-.231-.606-.558-.625-.326-.018-.606.231-.625.558l-.229 3.982c-1.031.074-2.028.401-2.902.953l-2.117-2.813c-.128-.17-.337-.26-.548-.234-.211.025-.393.162-.477.358-.084.196-.056.421.071.592l2.117 2.794c-.925.85-1.577 1.957-1.872 3.178l-4.075-.286c-.211-.015-.415.083-.533.258-.119.175-.135.401-.043.591.092.191.279.317.491.333l.01.013zm10.323-4.567c2.085 0 3.964 1.257 4.761 3.183.797 1.927.354 4.144-1.123 5.616-1.476 1.472-3.694 1.91-5.619 1.109-1.925-.801-3.177-2.684-3.172-4.769.01-2.839 2.313-5.136 5.152-5.139zM35.993 22.659l.172.025c.294-.002.543-.218.585-.509.042-.291-.135-.569-.416-.654-.333-.091-.609-.324-.756-.636-.18-.414-.18-.883 0-1.297.292-.702.68-.782 1.529-.893.447-.042.888-.137 1.313-.283.978-.416 1.598-1.392 1.561-2.454-.049-.954-.468-1.851-1.166-2.501-.153-.153-.318-.299-.486-.445-.426-.372-.83-.725-.922-1.147-.064-.447.16-.886.559-1.097.577-.253 1.249-.141 1.713.286.157.153.386.207.594.14.209-.067.363-.244.401-.46.038-.216-.047-.435-.22-.57-.829-.755-2.035-.93-3.045-.442-.876.453-1.349 1.428-1.163 2.396.175.804.769 1.329 1.297 1.789.149.13.299.257.432.394.476.436.768 1.037.817 1.681.017.559-.298 1.076-.804 1.316-.34.112-.692.184-1.049.216-.849.111-1.907.248-2.47 1.615-.313.724-.302 1.547.029 2.263.294.617.839 1.078 1.497 1.265z"
              fill="#A0D0FC"/>
        <path d="M45.269 30.037c-1.097-.747-2.965.458-3.35.721-7.008 5.273-11.639 4.583-13.565 3.874 7.459-3.655 6.655-6.643 6.531-6.992-.056-.151-.171-.272-.318-.337-.144-.067-.309-.073-.458-.019-1.781.649-3.628 1.099-5.508 1.341-.595.05-1.193.065-1.789.044-2.225-.029-4.745-.06-8.149 2.682-5.931 4.793-12.516 1.462-12.793 1.319-.187-.098-.413-.089-.592.024-.179.113-.284.313-.275.524.009.211.129.402.317.5.076.038 7.542 3.839 14.096-1.44 3.073-2.473 5.27-2.444 7.393-2.419.636.021 1.273.004 1.907-.051 1.687-.206 3.349-.58 4.961-1.119-.318.979-1.589 2.984-6.945 5.384-.194.086-.326.269-.348.48-.022.211.071.417.243.54.242.172 5.972 4.132 15.965-3.375.779-.531 1.748-.874 1.993-.706.099.067.226.454 0 1.437-.343 1.487-2.682 4.961-7.488 7.946-4.866 3.013-13.12 6.039-24.791 3.232-.181-.044-4.491-1.106-6.935-.127-.304.122-.451.467-.329.771s.467.451.771.329c2.085-.836 6.166.168 6.214.178 3.039.744 6.155 1.128 9.284 1.144 7.31 0 12.777-2.26 16.425-4.52 4.605-2.86 7.52-6.528 8.016-8.683.121-.505.474-2.034-.483-2.686z"
              fill="#294C80"/>
    </g>
</svg>
