<?xml version="1.0" encoding="UTF-8"?>
<svg width="337px" height="404px" viewBox="0 0 337 404" version="1.1" xmlns="http://www.w3.org/2000/svg" xmlns:xlink="http://www.w3.org/1999/xlink">
    <defs>
        <rect id="path-1" x="0" y="0" width="420" height="420"></rect>
        <linearGradient x1="49.9937052%" y1="136.540308%" x2="49.9937052%" y2="11.8266471%" id="linearGradient-3">
            <stop stop-color="#FFFFFF" offset="0%"></stop>
            <stop stop-color="#FBFBFB" offset="24%"></stop>
            <stop stop-color="#F0F0EF" offset="48%"></stop>
            <stop stop-color="#DCDCDC" offset="71%"></stop>
            <stop stop-color="#C1C1C0" offset="95%"></stop>
            <stop stop-color="#BABAB9" offset="100%"></stop>
        </linearGradient>
    </defs>
    <g id="Page-1" stroke="none" stroke-width="1" fill="none" fill-rule="evenodd">
        <g id="Ресурс-5-Copy" transform="translate(-50.000000, -16.000000)">
            <mask id="mask-2" fill="white">
                <use xlink:href="#path-1"></use>
            </mask>
            <g id="Mask"></g>
            <g id="Ресурс-4" mask="url(#mask-2)" fill-rule="nonzero">
                <g transform="translate(45.000000, 16.000000)">
                    <path d="M93.221565,226 C17.9160086,243.179641 27.6309367,297.147286 26.976933,332.518536 C26.976933,334.244834 26.8936961,335.983037 26.8342413,337.709335 C26.0256548,362.401348 22.8150911,386.70048 22.0065047,401.689509 C21.3525009,413.821216 10.555494,468.777018 46.7278455,462.502818 C50.2951386,461.871826 53.5770482,452.156936 60.8424351,432.989076 C62.3763711,428.965016 70.9497654,395.91534 70.0698331,369.520839 C71.9473549,362.829278 73.1425619,355.964398 73.6371261,349.031469 C76.5504155,316.160375 71.7107879,272.288596 81.6754265,266.645387 C98.4773768,257.097174 93.221565,226 93.221565,226 Z" id="Shape" fill="#F0F0F0"></path>
                    <path d="M84.2496122,224 C84.2496122,224 54.71853,237.804121 49.5092471,237.268154 C44.2999642,236.732187 36.7045699,242.341972 36.7045699,242.341972 L5,391.555107 C5,391.555107 50.9385515,418.210519 82.7376208,415.852265 L104,274.118844 L84.2496122,224 Z" id="Shape" fill="#C4C4C4"></path>
                    <path d="M327.962635,355.84153 C325.010683,340.608814 318.099084,327.954677 317.601164,318.058186 C316.925416,305.057851 313.985319,309.42711 313.036901,305.033975 C298.111166,235.973424 279.534021,236.856826 271.199794,234.60057 C252.42111,229.503101 229.70649,234.60057 230.00287,279.355627 C230.239975,311.874372 247.868702,324.289752 249.457303,331.249528 C250.500563,335.773979 251.247442,339.51053 251.828349,342.817319 C255.124103,360.48536 254.424644,365.785772 271.496175,411.531672 C274.815639,420.43732 282.462263,466.159344 290.464543,464.977495 C298.466823,463.795647 340.932257,460.572423 341.999227,457.993844 C342.082214,457.910279 335.466996,394.508276 327.962635,355.84153 Z" id="Shape" fill="#F0F0F0"></path>
                    <path d="M76.2183187,228.703905 C76.2183187,228.703905 33.1453895,281.811846 42.2686825,333.005666 C48.0722433,352.812657 48.8484397,362.133594 48.8484397,373.701542 C48.8484397,385.269491 45.2659948,413.969417 47.7856477,425.537365 C50.3053006,437.105314 46.6989727,570 46.6989727,570 L264.607155,570 C264.607155,570 253.85982,493.803718 257.131786,464.90168 C260.403753,435.999642 271.915342,367.911624 271.915342,332.411218 C271.915342,296.910813 275.748558,241.199192 231.827784,220.559974 C187.907009,199.920757 188.157781,183.34756 173.230927,187.698916 C165.540612,189.945927 142.123364,200.360648 121.201885,204.41478 C98.3936527,208.837469 105.94067,214.924612 76.2183187,228.703905 Z" id="Shape" fill="#C4C4C4"></path>
                    <path d="M198.13332,295 C197.644243,293.215428 197.85896,286.124728 210.431817,258.92785 C218.233192,242.022003 220.070212,227.995267 215.740092,218.477549 C214.52313,215.757028 212.742504,213.324269 210.515318,211.339261 C210.205172,211.065626 208.893014,209.328643 208.893014,209.328643 C208.893014,209.328643 205.314402,204.938595 205.314402,204.926698 L204.121531,206.175899 L203.167235,202 C203.572811,202.130869 216.181454,205.081361 221.131867,216.002942 C226.285069,227.352821 224.483834,242.616861 215.811664,261.402456 C203.680169,287.647563 203.882957,293.524754 203.882957,293.774594 C203.877836,293.653632 203.857804,293.533759 203.823314,293.417679 L198.13332,295 Z" id="Shape" fill="#8F8F8F"></path>
                    <path d="M189.556383,434 L188.767085,434 C187.791151,434 187,433.196382 187,432.205069 C187,431.213756 187.791151,430.410138 188.767085,430.410138 L189.556383,430.410138 C195.317081,430.410138 200.229577,425.623655 201.242706,418.994376 L212.446026,345.545793 C212.540724,344.904525 212.965033,344.363287 213.55912,344.125956 C214.153207,343.888626 214.826816,343.991259 215.326205,344.395196 C215.825594,344.799133 216.074894,345.443005 215.980196,346.084272 L204.776876,419.556787 C203.457453,427.921166 197.072385,434 189.556383,434 Z" id="Shape" fill="#DEDEDE"></path>
                    <path d="M164.02108,432 C163.709513,431.998088 163.402961,431.924199 163.127116,431.784526 C156.273391,428.193292 152.697535,420.101045 154.435798,412.116535 L170.340909,339.322226 C170.601112,338.404956 171.557948,337.842336 172.522919,338.039203 C173.48789,338.23607 174.126331,339.124149 173.978847,340.064414 L158.073736,412.846753 C156.695541,419.191266 159.563676,425.823078 164.902628,428.62424 C165.770164,429.10556 166.097066,430.156148 165.647598,431.018396 C165.335432,431.610427 164.709818,431.987985 164.02108,432 Z" id="Shape" fill="#DEDEDE"></path>
                    <path d="M214.892903,348 L214.436297,348 C212.795782,347.743701 211.67311,346.221627 211.924965,344.595238 L215.697972,320.416667 C216.808439,313.899921 214.986589,307.227971 210.711355,302.154762 C207.508621,298.274591 202.733027,296.002644 197.674056,295.952381 C189.262895,295.952381 181.909138,302.511905 179.914491,311.892857 L173.906519,340.059524 C173.496183,341.581319 171.960089,342.522821 170.402452,342.207233 C168.844816,341.891645 167.80511,340.428269 168.030723,338.869048 L174.038695,310.690476 C176.646154,298.5 186.367053,290 197.674056,290 C204.491587,290.055949 210.931894,293.108923 215.253382,298.333333 C220.668336,304.72724 222.990565,313.147343 221.609816,321.380952 L217.860841,345.47619 C217.63553,346.927724 216.375217,347.999441 214.892903,348 Z" id="Shape" fill="#8F8F8F"></path>
                    <path d="M82.7819813,391.096677 C82.5213209,391.096677 82.2606604,391.096677 82,391.096677 C88.6052055,391.580601 93.7403837,397.68298 93.7403837,405.048338 C93.7403837,412.413697 88.6052055,418.516076 82,419 C82.2606604,419 82.5213209,419 82.7819813,419 C89.5870884,418.777514 95,412.575137 95,405 C95,397.424863 89.5870884,391.222486 82.7819813,391 L82.7819813,391.096677 Z" id="Shape" fill="#B0B0B0"></path>
                    <circle id="Oval" fill="#DEDEDE" transform="translate(82.000000, 405.000000) rotate(-58.280000) translate(-82.000000, -405.000000) " cx="82" cy="405" r="14"></circle>
                    <path d="M77.7178066,401 C74.9313339,344.178815 80.7708115,282.423377 86.4164474,254.672666 C88.7792945,242.3169 91.8533764,230.102401 95.6239224,218.08786 C97.0292738,213.819435 99.1009557,209.00408 103.571427,208.088568 C105.546188,207.815104 106.854619,208.219356 107,208.694946 L105.134275,209.955261 C104.855628,210.609198 78.4810578,293.314401 83.7632408,400.714646 L77.7178066,401 Z" id="Shape" fill="#8F8F8F"></path>
                    <path d="M81.4360729,396.052578 L81,396.052578 C84.8225328,396.331012 87.7934405,399.816793 87.7934405,404.023358 C87.7934405,408.229922 84.8225328,411.715703 81,411.994137 L81.4360729,411.994137 C84.1034413,412.106106 86.6130124,410.607395 87.9770053,408.087904 C89.3409982,405.568413 89.3409982,402.431587 87.9770053,399.912096 C86.6130124,397.392605 84.1034413,395.893894 81.4360729,396.005863 L81.4360729,396.052578 Z" id="Shape" fill="#9E9E9E"></path>
                    <path d="M88.9999914,404.988213 C89.0047147,408.225984 87.057339,411.147352 84.0669297,412.388576 C81.0765204,413.629801 77.6327978,412.946107 75.3433453,410.656655 C73.0538928,408.367202 72.3701994,404.92348 73.6114236,401.93307 C74.8526479,398.942661 77.7740157,396.995285 81.011787,397.000009 C85.4208836,397.006441 88.9935595,400.579116 88.9999914,404.988213 Z" id="Shape" fill="#C9C9C9"></path>
                    <path d="M190.748206,138.986489 C190.748206,138.986489 188.978608,185.311464 205,203.793941 L131.793285,282 C131.793285,282 106.97141,215.779043 110.308705,207.060445 C113.646,198.341847 111.912032,156.328659 115.498734,146.10153 C119.085435,135.874401 150.771924,116.406034 168.942961,123.532953 C187.113999,130.659872 190.748206,138.986489 190.748206,138.986489 Z" id="Shape" fill="url(#linearGradient-3)"></path>
                    <path d="M232.62972,220 C232.62972,220 276.967742,232.805212 282.156108,232.034528 C287.344474,231.263844 295.979905,237.310749 295.979905,237.310749 L342,381.511664 C342,381.511664 289.879429,412.82515 257.967425,411.983326 L230,272.074529 L232.62972,220 Z" id="Shape" fill="#C4C4C4"></path>
                    <path d="M146.536854,32.0001422 C192.479769,32.0829643 198.897041,62.5260245 200.537011,78.4160477 C203.282177,105.203101 192.967007,136.923989 191.933113,145.85695 C190.899219,154.789912 184.921649,160.055035 180.548396,166.314024 C176.175144,172.573013 158.159247,189.397744 141.331733,187.906945 C121.461957,186.155848 106.868604,166.467837 102.554771,156.13873 C98.2409385,145.809624 95.7928679,128.203998 93.8082671,122.879717 C91.8236662,117.555435 94.1528984,119.554998 93.8795701,105.593548 C93.6062419,91.6320983 85.0261112,31.8936565 146.536854,32.0001422 Z" id="Shape" fill="#F4F4F4"></path>
                    <path d="M188.35271,118.388976 L195.705814,125 C195.705814,125 203.047096,89.2932706 203.673647,85.2378692 C204.300198,81.1824679 203.850973,67.9244249 203.744577,60.9654521 C203.638182,54.0064793 191.130812,37.06498 181.685265,35.1692598 C173.232741,33.4775095 170.218205,26.638519 161.044557,24.6348148 C151.870909,22.6311106 129.125937,18.2637552 122.245701,23.4349919 C115.365466,28.6062286 105.801701,35.0612758 102.787165,38.6007533 C99.7726288,42.1402308 88.7902593,58.3978311 89.0030501,71.7638581 C89.1330889,79.7186839 92.5495634,111.04606 92.3722377,113.877642 C92.1949121,116.709224 97.1009222,108.730402 95.8005339,105.706848 C94.5001457,102.683294 94.1100293,95.4003692 94.405572,91.6329253 C94.7011148,87.8654814 94.0863858,75.8192595 97.2546044,71.0319662 C100.422823,66.2446728 105.529802,54.0544722 110.471277,53.8145076 C115.412753,53.574543 130.000744,57.4139763 136.017995,57.4139763 C142.803657,57.4139763 159.188548,54.0184775 166.305218,54.0184775 C173.421889,54.0184775 181.129644,62.9811545 181.756195,68.0564054 C182.938366,78.1229195 186.390306,89.4012547 187.785267,91.4049589 C189.180229,93.4086632 187.59612,96.9361425 188.435462,106.150782 C189.274803,115.365422 188.35271,118.388976 188.35271,118.388976 Z" id="Shape" fill="#A7A7A7"></path>
                    <path d="M102.194048,112.803311 C101.341985,111.485549 92.7461747,101.689791 87.5962065,103.147493 C82.4462383,104.605195 83.5113169,119.613695 86.5311279,122.750669 C89.550939,125.887644 93.0218421,138.004063 94.7510285,139.78829 C96.480215,141.572517 103.609976,145.759037 104.775298,140.266416 C105.940619,134.773795 102.194048,112.803311 102.194048,112.803311 Z" id="Shape" fill="#F4F4F4"></path>
                    <path d="M189.381136,117.591928 C190.334444,116.343802 199.589975,107.312549 204.368581,109.278937 C209.147186,111.245324 206.564809,126.199289 203.34287,129.06056 C200.120931,131.921831 195.535401,143.767255 193.689121,145.403949 C191.842842,147.040643 184.578396,150.561301 184.035373,144.921183 C183.492349,139.281065 189.381136,117.591928 189.381136,117.591928 Z" id="Shape" fill="#F4F4F4"></path>
                    <path d="M103,38.2118216 C103,38.2118216 112.79264,30.2025663 114.508139,21.3420278 C115.260229,18.9994045 116.217023,16.7284347 117.367304,14.5557425 L118.332272,21.5218763 C123.026311,18.6667329 126.588934,14.2589458 128.410828,9.05237695 C128.765004,11.9819773 128.492863,14.95393 127.612644,17.7690366 C131.235092,13.7638115 133.565418,8.74705817 134.295942,3.38115271 C134.63364,7.2049999 135.787719,10.9103799 137.679288,14.244005 C137.320727,9.48853984 137.52468,4.70704274 138.28686,0 C138.28686,0 141.038806,16.2103492 147.090705,20.6466134 C147.090705,20.6466134 148.115239,9.72381153 150.188134,7.61358856 C149.663954,13.1649138 150.926752,17.0376525 155.489502,18.1766933 C159.659118,16.7858645 159.242156,16.3782078 161.803491,13.9442575 C162.673154,19.1718553 162.565935,18.9080774 171.262562,25.3586454 C170.358827,23.1519635 170.086474,20.7348396 170.476292,18.3805217 C170.476292,18.3805217 184.140717,32.3847286 192.146379,34.5908708 C197.23331,35.9936895 204,57 204,57 L103,38.2118216 Z" id="Shape" fill="#A7A7A7"></path>
                    <path d="M143,26.4127714 C143,26.4127714 162.178651,19.3700681 165.013343,10 C165.013343,10 167.041512,20.2185866 156.02298,24.2551101 C156.02298,24.2551101 171.074129,19.6609887 175,13.8425765 C175,13.8425765 170.255745,25.0915069 165.357302,26.4127714 C160.458858,27.7340358 143,26.4127714 143,26.4127714 Z" id="Shape" fill="#A7A7A7"></path>
                    <path d="M142.788307,23.3149682 C141.817715,14.6912703 141.659712,8.43292963 142.788307,3 C142.788307,3 145.632367,22.5757941 148.431282,24.3990902 C151.230198,26.2223863 142.788307,23.3149682 142.788307,23.3149682 Z" id="Shape" fill="#A7A7A7"></path>
                    <path d="M143,23.338637 C150.76193,20.2220672 156.625694,16.3807137 157.762176,9 C157.762176,9 160.05932,21.5266778 150.375043,23.4956735 C144.233204,24.715726 143,23.338637 143,23.338637 Z" id="Shape" fill="#A7A7A7"></path>
                    <path d="M144.788187,20.790063 L154,10 L147.243887,20.790063 L138.443315,24.3589923 C125.89457,24.9776067 121.288663,21.3848845 117,10.856543 L120.043188,27 L144.788187,20.790063 Z" id="Shape" fill="#A7A7A7"></path>
                </g>
            </g>
        </g>
    </g>
</svg>
