<?xml version="1.0" encoding="UTF-8"?>
<svg width="254px" height="395px" viewBox="0 0 254 395" version="1.1" xmlns="http://www.w3.org/2000/svg" xmlns:xlink="http://www.w3.org/1999/xlink">
    <defs>
        <rect id="path-1" x="0" y="0" width="420" height="420"></rect>
        <linearGradient x1="43.450233%" y1="93.3827621%" x2="52.1554324%" y2="8.90317976%" id="linearGradient-3">
            <stop stop-color="#ADADAD" offset="0%"></stop>
            <stop stop-color="#BEBEBC" offset="44%"></stop>
            <stop stop-color="#B4B4B4" offset="96%"></stop>
            <stop stop-color="#B3B3B3" offset="100%"></stop>
        </linearGradient>
        <linearGradient x1="50.0034077%" y1="9.34234931%" x2="50.0034077%" y2="128.423072%" id="linearGradient-4">
            <stop stop-color="#ADADAD" offset="0%"></stop>
            <stop stop-color="#B0B0B0" offset="42%"></stop>
            <stop stop-color="#BBBBBA" offset="77%"></stop>
            <stop stop-color="#C6C6C5" offset="100%"></stop>
        </linearGradient>
        <linearGradient x1="50.5463132%" y1="137.793475%" x2="53.245915%" y2="13.2428887%" id="linearGradient-5">
            <stop stop-color="#FFFFFF" offset="0%"></stop>
            <stop stop-color="#FBFBFB" offset="24%"></stop>
            <stop stop-color="#F0F0EF" offset="48%"></stop>
            <stop stop-color="#DCDCDC" offset="71%"></stop>
            <stop stop-color="#C1C1C0" offset="95%"></stop>
            <stop stop-color="#BABAB9" offset="100%"></stop>
        </linearGradient>
        <linearGradient x1="24.70351%" y1="-10.3725751%" x2="115.836348%" y2="-6.69931533%" id="linearGradient-6">
            <stop stop-color="#666666" offset="0%"></stop>
            <stop stop-color="#A8A8A8" offset="100%"></stop>
        </linearGradient>
        <linearGradient x1="-47217.916%" y1="-155090.783%" x2="-47121.2144%" y2="-155090.783%" id="linearGradient-7">
            <stop stop-color="#666666" offset="0%"></stop>
            <stop stop-color="#A8A8A8" offset="100%"></stop>
        </linearGradient>
    </defs>
    <g id="Page-1" stroke="none" stroke-width="1" fill="none" fill-rule="evenodd">
        <g id="Ресурс-5" transform="translate(-82.000000, -25.000000)">
            <mask id="mask-2" fill="white">
                <use xlink:href="#path-1"></use>
            </mask>
            <g id="Mask"></g>
            <g mask="url(#mask-2)" fill-rule="nonzero">
                <g transform="translate(82.000000, 25.000000)">
                    <path d="M90.6527497,237.730421 C84.6330428,224.432293 66.2013291,211.968235 45.731997,226.546836 C29.1399616,238.388279 30.327602,264.667352 24.6921317,282.852424 C24.2962516,284.132898 23.912015,285.401624 23.5277784,286.658602 C6.62136756,341.601484 -5.30161087,390.776363 2.38312132,394.594288 C10.25415,398.494446 26.3688006,400.303555 28.604359,393.008381 C36.894555,365.859995 42.5765994,343.89224 56.5488397,322.817292 C57.5385401,321.337112 59.2850701,318.975872 61.508985,315.933279 C73.9093483,298.946448 101.120286,260.872922 90.6527497,237.730421 Z" id="Shape" fill="#E9E9E9"></path>
                    <path d="M63,220 L42.0434864,225.044571 L42.3399849,228.263265 L39.2326807,232.523645 L0,336.949779 C0,336.949779 46.1233057,363.120686 49.6338479,360.861748 C53.1443901,358.60281 63,220 63,220 Z" id="Shape" fill="#C3C3C3"></path>
                    <path d="M0.238534927,382.484691 C2.90028692,394.671086 4.79986324,422.462155 9.2204822,432.658456 C18.0030912,452.88717 41.3725702,510.974483 41.3725702,510.974483 C41.3725702,510.974483 50.8939033,519.379701 55.2676192,511.899291 C59.641335,504.418882 42.9555505,465.143804 43.940516,434.472953 C44.3391925,422.192907 37.4796113,396.146097 32.2147362,382.110085 C25.2848004,378.750339 -2.8687967,363.192492 0.238534927,382.484691 Z" id="Shape" fill="#E9E9E9"></path>
                    <path d="M227,547 C198.812779,438.488992 196.170227,373.560756 227,253.702268 C227,253.702268 218.144515,221.173609 209.99371,217.453701 C165.363943,197.105687 156.860798,191.00363 142.179954,195.298539 C134.616383,197.516402 130.306087,196.859258 110.363628,203.325091 C88.8121482,210.295518 87.6141913,213.393486 60.3782888,220.492995 C60.3782888,220.492995 45.6269764,239.092535 44.6169343,264.768115 C43.8182964,284.811026 40.9408509,290.690124 36.0902999,318.055504 C32.5668973,338.11015 34.5634921,340.351482 34.5634921,351.722431 C34.5634921,363.09338 38.5331924,407.039928 41.6807654,418.27006 C49.0329323,469.632954 47.4239118,498.265685 42.3032332,547 L227,547 Z" id="Shape" fill="#C3C3C3"></path>
                    <path d="M206.438189,426 C207.425644,400.661981 207.02596,373.556194 209.964815,341.854208 C211.140357,329.78624 219.510218,313.275279 225,296.81146 C202.664698,225.346462 102.367437,298.272815 42.5793611,286.829459 C41.1216888,294.807989 39.0527345,303.328634 36.3960091,318.413594 C32.8693825,338.554373 37.1366007,355.984572 37.1366007,367.451499 C37.1366007,377.692773 43.8371913,403.85575 49.3269734,416.842958 C51.4782156,415.900148 46.2705636,418.504661 48.5863818,418.127537 C94.1974192,410.313999 162.837328,414.061668 206.438189,426 Z" id="Shape" fill="url(#linearGradient-3)"></path>
                    <path d="M56.4972923,250 C51.3323423,277.801441 21,293.783178 21,317.98376 C21,342.184342 38.8660314,363.263399 61.9439668,357.990712 C85.5501357,352.589423 107.853329,361.229147 135.262779,360.995325 C162.061826,360.773194 183.296813,345.56307 182.498594,324.916584 C181.899929,309.718151 178.15534,273.6511 194.13147,262.334113 C205.423928,254.337399 103.228351,254.34909 83.2611238,259.025531 C63.2938968,263.701972 56.4972923,250 56.4972923,250 Z" id="Shape" fill="url(#linearGradient-4)"></path>
                    <path d="M154.086036,139.816411 C154.086036,139.816411 150.619276,171.554533 158.369199,194.109963 C158.369199,194.109963 167.491628,198.359023 170,200.011436 C133.84158,230.994169 116.353968,251.826368 97.4110261,280 C94.2164014,251.507689 96.0503526,229.825677 107.018564,203.611334 C115.655883,182.295214 104.297217,152.740637 107.456346,142.719936 C110.615475,132.699235 133.640437,114.251231 145.578868,121.746101 C157.5173,129.240972 154.086036,139.816411 154.086036,139.816411 Z" id="Shape" fill="url(#linearGradient-5)"></path>
                    <path d="M143.05328,527 C139.00339,527 136.134226,520.849372 134.599283,515.964017 C132.651085,509.801674 135.047959,504.635146 147.835219,494.969874 C183.776513,467.801674 202.798007,409.552301 204.368372,406.928033 L204.439215,406.822594 L204.439215,406.705439 C206.65898,402.335565 217.4272,387 234.878327,387 C244.087989,387 251.715477,395.821757 252.671865,399.453556 C255.033317,408.603347 244.288712,427.570711 232.020971,440.094561 C225.538786,446.725523 219.953953,452.454393 216.754186,457.082008 C207.00139,471.304603 155.75789,521.76318 147.965099,523.403347 C147.551845,523.403347 143.537377,527 143.05328,527 Z" id="Shape" fill="#E9E9E9"></path>
                    <path d="M230.020028,335.002519 L229.407548,334.240148 C215.391172,316.646984 204.578539,290.362796 182.387906,280.170489 C155.073641,267.632428 150.750943,289.764628 150.750943,303.628042 C150.750943,325.033059 174.307878,353.193851 190.573941,369.649324 C195.874251,375.009375 196.757636,382.773824 199.466684,385.014021 C223.176738,404.659721 235.202553,423.589966 256.003327,449.827238 C261.598099,456.864504 296.886386,448.079651 303.058303,443.435055 C309.23022,438.79046 273.282338,389.295024 230.020028,335.002519 Z" id="Shape" fill="#E9E9E9" transform="translate(227.250943, 364.460236) rotate(-330.000000) translate(-227.250943, -364.460236) "></path>
                    <path d="M174.53316,231.270971 C175.978687,231.610134 187.390125,233.84393 195.452171,235.422791 C196.43936,235.62161 196.345342,236.837918 197.215009,237.001652 C199.291913,237.354179 201.413809,237.354179 203.490713,237.001652 L203.490713,240.416669 L207.886055,242.755723 L278,333.663027 C278,333.663027 242.096865,369.251722 226.290084,374 C226.290084,374 147.667508,275.022962 150.053216,266.766104 C152.438923,258.509246 159.525532,227.809172 174.53316,231.270971 Z" id="Shape" fill="#C3C3C3" transform="translate(214.000000, 302.500000) rotate(-330.000000) translate(-214.000000, -302.500000) "></path>
                    <path d="M167.128086,288 C166.658361,286.235294 166.864582,279.223529 178.928493,252.329412 C186.432636,235.611765 188.196969,221.741176 184.026728,212.329412 C182.27168,209.028538 180.296414,205.856263 178.115067,202.835294 L174.597859,200.894118 L172.913723,200.176471 L170.20994,199 C170.599468,199.117647 184.496453,199.152941 189.250986,209.952941 C194.188826,221.164706 192.47032,236.270588 184.129838,254.835294 C172.489825,280.8 172.673132,286.6 172.673132,286.847059 C172.659028,286.727782 172.636047,286.60979 172.604392,286.494118 L167.128086,288 Z" id="Shape" fill="#8F8F8F"></path>
                    <path d="M159.556286,425 L158.767018,425 C157.791121,425 157,424.214093 157,423.244628 C157,422.275163 157.791121,421.489256 158.767018,421.489256 L159.556286,421.489256 C165.316765,421.489256 170.240856,416.808265 171.242166,410.313389 L182.445062,338.506979 C182.594699,337.537514 183.507125,336.872113 184.483022,337.020764 C185.45892,337.169416 186.128735,338.075828 185.979098,339.045293 L174.776203,410.886811 C173.456829,419.043438 167.072004,425 159.556286,425 Z" id="Shape" fill="#DEDEDE"></path>
                    <path d="M133.493723,422.999977 C133.201782,422.999501 132.914512,422.927116 132.657604,422.789297 C126.145299,419.277953 122.765496,411.365724 124.41418,403.558835 L139.499646,332.395594 C139.630071,331.780898 140.080538,331.282052 140.681361,331.086966 C141.282184,330.891881 141.942083,331.030194 142.41248,331.449805 C142.882878,331.869416 143.092309,332.506576 142.961883,333.121272 L127.876418,404.284513 C126.557471,410.487888 129.2778,416.97217 134.341618,419.699314 C135.054955,420.081959 135.414714,420.898039 135.214186,421.678652 C135.013657,422.459264 134.304311,423.004046 133.493723,422.999977 Z" id="Shape" fill="#DEDEDE"></path>
                    <path d="M185.043459,341 L184.583208,341 C182.973685,340.753802 181.869708,339.260751 182.116736,337.664271 L185.822345,313.927926 C186.912977,307.520908 185.12367,300.961298 180.924804,295.973511 C177.793826,292.156678 173.116614,289.914462 168.155793,289.852156 C159.89488,289.852156 152.66068,296.289528 150.701664,305.512526 L144.801012,333.204928 C144.398005,334.7011 142.88935,335.626749 141.359538,335.316475 C139.829725,335.006201 138.808591,333.567465 139.030174,332.034497 L144.930826,304.342094 C147.468106,292.33347 157.050766,284 168.155793,284 C174.822978,284.053119 181.125516,287.026397 185.373896,292.122793 C190.692124,298.40904 192.972871,306.687368 191.616786,314.782341 L187.911176,338.518686 C187.697339,339.930905 186.483227,340.981425 185.043459,341 Z" id="Shape" fill="#8F8F8F"></path>
                    <path d="M59.3080472,387 C59.0296897,387 58.7513323,387 58.484573,387 C65.5238919,387.866089 70.7030855,394.290111 70.3102442,401.667992 C69.9174029,409.045873 64.0880228,414.832884 57,414.881495 L57.8234741,414.978222 C65.2314622,415.405588 71.5691559,409.491604 71.9791094,401.768971 C72.3890629,394.046337 66.7160352,387.439457 59.3080472,387.012091 L59.3080472,387 Z" id="Shape" fill="#B0B0B0"></path>
                    <ellipse id="Oval" fill="#DEDEDE" transform="translate(56.500000, 401.000000) rotate(-41.830000) translate(-56.500000, -401.000000) " cx="56.5" cy="401" rx="13.5" ry="14"></ellipse>
                    <path d="M54,397.929521 C54.4020556,341.722348 63.2472793,281.098478 70.0822249,254.03446 C74.8035067,235.322228 78.5598549,224.210006 80.7539299,218.43071 C82.3162031,214.307676 84.5332527,209.667795 88.7950423,209.033482 C90.6789601,208.86903 91.885127,209.338892 92,209.820499 L90.1620314,210.995153 C89.8748489,211.629466 62.7762999,264.770793 59.7321644,398 L54,397.929521 Z" id="Shape" fill="#8F8F8F"></path>
                    <path d="M57.4246507,393 L56.9254141,393 C61.3230752,393.487973 64.5771499,397.406155 64.3306982,401.916591 C64.0842465,406.427027 60.4235208,409.95117 56,409.936468 L56.5114131,409.998643 C60.9967897,410.079648 64.7415135,406.523069 64.987271,401.948635 C65.2330286,397.374201 61.8917829,393.420599 57.4246507,393 Z" id="Shape" fill="#9E9E9E"></path>
                    <path d="M63.987636,401.97216 C63.7422143,406.659026 59.9673766,410.247174 55.5561378,409.986667 C51.144899,409.726159 47.7675736,405.715637 48.0125253,401.028743 C48.257477,396.341849 52.0319548,392.753274 56.4432197,393.013282 C58.5618848,393.13816 60.5470613,394.152243 61.9619485,395.832399 C63.3768357,397.512556 64.1055084,399.721128 63.987636,401.97216 Z" id="Shape" fill="#C9C9C9"></path>
                    <path d="M113,62 L59.4552112,99.6158235 C59.4552112,99.6158235 53.0321722,157.548402 67.1745363,185 C67.1745363,185 66.5205541,178.929536 67.898588,177.385603 C67.558795,175.999672 67.1217201,174.6395 66.5906237,173.315234 C54.9123709,149.243914 63.7060952,124.283663 63.7060952,124.283663 C58.66109,153.735356 64.5118947,166.051731 66.5906237,173.315234 C67.0110407,174.648631 67.4548144,175.993724 67.945301,177.327121 C67.945301,169.209776 81.5738219,145.419171 103.353763,138.01531 C103.353763,137.956828 95.4242296,77.907189 113,62 Z" id="Shape" fill="url(#linearGradient-6)"></path>
                    <path d="M77.3131483,112.430968 C76.6246577,116.659984 76.712077,120.979881 77.5710881,125.177282 C80.1973847,137.652648 81.0884496,143.754857 93.1412748,159.03394 C95.3923861,161.755196 99.1207893,169.754038 101.782259,171.061654 C111.525351,175.773785 117.235201,173.688667 123.015398,172.498854 C127.646591,171.544647 134.353026,164.959445 134.353026,164.959445 C134.353026,164.959445 159.830448,148.596571 161.084973,139.231211 C162.339499,129.865852 165.528573,127.062134 165.528573,127.062134 C165.528573,127.062134 166.290668,125.884101 168.600402,127.238839 C172.621919,129.594904 175.77582,121.725646 177.323459,112.866841 C178.495913,106.093153 179.035241,93.8651737 171.168076,97.0694226 C167.14656,98.706888 168.506606,97.9529471 168.506606,97.9529471 C168.506606,97.4581734 169.596988,89.3886496 168.506606,82.9330307 C166.88862,73.1317989 168.166595,61.375033 158.364881,54.342178 C148.563167,47.309323 152.643306,33.5027802 138.069705,27.8011022 C131.843975,25.3625746 115.195131,28.8731119 107.257619,25.3036729 C99.3201064,21.734234 83.3278364,50.7020571 80.0918638,56.0856663 C76.1055208,62.6944296 76,87.6216006 76,92.6046788 C76,96.1387768 78.3449076,100.450376 78.3449076,100.450376 L77.3131483,112.430968 Z" id="Shape" fill="#F4F4F4"></path>
                    <path d="M179.539478,42.8075745 C178.130938,37.523662 176.593281,32.6596631 176.018126,31.8781573 C174.753177,30.454292 173.180063,29.3336946 171.416894,28.6004986 C170.974494,27.0710091 170.327017,25.6076242 169.491888,24.2497274 C166.909563,20.1905628 164.080744,18.9774792 161.862293,18.837508 C160.909551,18.0356927 159.897216,17.3065455 158.83393,16.6562902 C157.952797,15.4751382 156.635347,14.6904625 155.171724,14.4750725 C154.012724,14.4548246 152.855118,14.5643818 151.7208,14.801672 C151.298237,13.8918592 150.218356,13.1920033 148.199448,12.8420753 C144.202899,12.0336893 140.077001,12.1013598 136.109474,13.0403678 C134.857627,12.423179 133.49093,12.0697473 132.095133,12.0022481 C129.747565,11.9205983 120.521623,14.0901517 120.521623,14.0901517 C118.507309,14.5479333 116.561894,15.2655389 114.734869,16.2247124 C104.417308,21.7069174 76.5282028,33.137898 76,74.5460421 C76.2921642,71.5196806 76.7624834,68.5129258 77.4085407,65.5412288 C79.2161679,60.7822083 85.7893578,50.6109684 88.1486634,50.0044266 C92.9846531,46.7734249 97.9028077,46.7617606 105.450238,46.5051468 C105.450238,46.7267678 105.638044,46.7967534 108.020825,46.8550748 C110.97876,46.9367246 111.084401,46.5984609 111.084401,46.5634681 C112.386262,46.8905614 113.713336,47.1090535 115.05179,47.216667 L118.326648,47.391631 C119.963507,47.8047413 121.632127,48.0817517 123.315229,48.2197939 C124.523838,48.3633507 125.745351,48.3633507 126.953959,48.2197939 C128.393761,48.8860185 129.900761,49.3982368 131.449552,49.7478127 C132.559944,49.8066909 133.672706,49.8066909 134.783098,49.7478127 C136.694909,51.0426079 138.844773,51.950276 141.109793,52.4189296 L142.518334,52.5822293 C143.702703,53.1997785 144.790114,53.9856657 145.74624,54.9150825 C147.084353,57.656185 154.220959,75.2575623 162.097049,87.2250992 C163.529066,89.4063169 159.925549,112 159.925549,112 C166.475263,94.585251 174.386567,94.7602149 177.19191,98.8077152 C177.215386,98.8310438 188.507187,65.4362504 179.539478,42.8075745 Z" id="Shape" fill="#A8A8A8"></path>
                    <path d="M158.625213,20.2246975 C158.625213,20.2246975 165.837276,11.1782931 174.237624,12.0605822 C176.908323,12.3429147 205.909525,21.1305143 211.945069,50.3519298 C220.486599,91.760699 199.638677,118.2529 199.638677,118.2529 C195.873815,144.886268 181.461453,151.544609 160.072331,172.107828 C152.613199,177.189813 127.482746,196.517827 118,199 C118,199 161.084138,169.919751 162.213597,109.147676 C162.978334,67.8330182 136.012511,51.6106623 136.012511,51.6106623 C136.012511,51.6106623 148.577737,20.4835023 158.625213,20.2246975 Z" id="Shape" fill="#A8A8A8"></path>
                    <path d="M134.364659,0.137301287 C117.222173,-1.36648577 92.5696464,9.68869877 81.1879688,23.175789 C73.6546043,32.0927763 55.7541176,60.335777 48.9437695,85.4419718 C41.3520973,113.426509 48.7338615,160.03216 67.742196,200 C55.6491636,171.087344 49.9699863,140.353696 64.8967766,115.870163 C104.546063,110.618657 112.779121,48.4934539 133.594996,51.1485779 L158.783955,19.9567448 L158.958878,17.9242826 C158.958878,17.9242826 167.728368,3.06263705 134.364659,0.137301287 Z M90.9137056,95.9214879 C84.5115119,106.776951 68.5118586,111.687755 68.5118586,111.687755 C92.8845083,100.468094 90.5988436,78.53395 112.954044,64.5886747 C98.656978,75.5851176 99.6248871,81.1538291 90.9137056,95.9214879 Z" id="Shape" fill="#A8A8A8"></path>
                    <path d="M138,50.8461674 C138,50.8461674 131.646927,41.7841071 123,56 C123,56 127.553973,50.857595 132.231634,51.2689874 C136.594453,51.6118144 138,50.8461674 138,50.8461674 Z" id="Shape" fill="url(#linearGradient-7)"></path>
                    <path d="M192,114.514123 C192,114.514123 187.579937,141.919294 177,153 C177,153 184.053292,146.154639 187.356583,123.067859 C190.659875,99.9810781 192,114.514123 192,114.514123 Z" id="Shape" fill="#A8A8A8"></path>
                    <path d="M78.2838834,35 C78.2838834,35 47.1762141,53.3156113 47,94 C47,94 49.8311738,56.5463959 73.4203731,50.6252489 C96.2459779,44.8920749 78.2838834,35 78.2838834,35 Z" id="Shape" fill="#A8A8A8"></path>
                </g>
            </g>
        </g>
    </g>
</svg>
