<svg width="50" height="50" viewBox="0 0 50 50" xmlns="http://www.w3.org/2000/svg">
    <g stroke-width=".992" fill="none">
        <path d="M23.059 17.971h-1.465c-.432-.011-.81.288-.899.711-.049.274.037.555.231.754.399.396.642.923.684 1.485v.017c.015.262-.083.518-.268.704l-.291.291c-.576.576-.9 1.358-.899 2.172v9.086h10.399v-9.086c0-.815-.323-1.596-.899-2.172l-.291-.291c-.185-.185-.282-.44-.268-.701.05-.574.299-1.112.704-1.521.184-.198.264-.471.215-.737-.089-.423-.467-.722-.899-.711h-1.465"
              stroke="#A0D0FC"/>
        <path d="M28.782 26.69c-.388.578-1.053.907-1.748.866-.695-.041-1.316-.446-1.635-1.065-.341.635-1 1.034-1.721 1.044-.721.01-1.39-.372-1.748-.997"
              stroke="#A0D0FC" stroke-linecap="round"/>
        <path d="M27.172 19.41h-3.637l-.661-2.682c-.033-.131-.003-.27.08-.377.083-.107.211-.169.346-.169h4.117c.135 0 .263.062.346.169.083.107.113.245.08.377l-.671 2.682z"
              stroke="#A0D0FC"/>
        <path d="M19.028 11.14c0-1.096-.888-1.984-1.984-1.984s-1.984.888-1.984 1.984.888 1.984 1.984 1.984 1.984-.888 1.984-1.984zM35.137 9.735c-.776-.771-2.03-.769-2.803.005-.773.774-.773 2.028 0 2.803.773.774 2.027.777 2.803.005.375-.372.585-.879.585-1.407s-.211-1.035-.585-1.407zM43.972 25.543c0-.802-.483-1.526-1.225-1.833-.741-.307-1.595-.137-2.162.43s-.737 1.421-.43 2.162c.307.741 1.03 1.225 1.833 1.225 1.096 0 1.984-.888 1.984-1.984zM10.716 25.543c0-.802-.483-1.526-1.225-1.833-.741-.307-1.595-.137-2.162.43s-.737 1.421-.43 2.162c.307.741 1.03 1.225 1.833 1.225 1.096 0 1.984-.888 1.984-1.984zM19.028 39.943c0-1.096-.888-1.984-1.984-1.984s-1.984.888-1.984 1.984.888 1.984 1.984 1.984 1.984-.888 1.984-1.984zM35.726 39.943c0-1.096-.888-1.984-1.984-1.984s-1.984.888-1.984 1.984.888 1.984 1.984 1.984 1.984-.888 1.984-1.984zM35.808 14.85l4.047 7.01M21.323 11.14h8.094M10.868 21.833l4.044-7.01M14.898 36.233l-4.047-7.01M29.384 39.943h-8.094M39.839 29.253l-4.044 7.01"
              stroke="#294C80" stroke-linecap="round"/>
        <path d="M35.719 7.556l1.379-2.391M14.961 7.572l-1.382-2.391M4.592 25.556l-2.427.003M14.988 43.527l-1.379 2.391M35.746 43.514l1.382 2.387M46.111 25.526l2.43-.003"
              stroke="#A0D0FC" stroke-linecap="round"/>
    </g>
</svg>
