<svg width="50" height="50" viewBox="0 0 50 50" xmlns="http://www.w3.org/2000/svg">
    <g stroke-width="1.008" fill="none">
        <path stroke="#A0D0FC" stroke-linecap="round"
              d="M24.201 4.168l-.003 8.525 3.648-3.782-.077 8.098M39.453 6.355l-5.152 6.791 5.193-.813-4.954 6.409M10.373 9.246l4.131 7.456 1.354-5.078 3.863 7.117"/>
        <path d="M46.866 44.154h-43.866" stroke="#294C80"/>
        <path d="M3 23.326h43.436" stroke="#00AEEF"/>
        <path d="M3.43 23.326h43.436" stroke="#294C80"/>
        <path d="M23.055 40.473c-.83-.598-1.229-1.542-.897-2.103.333-.561 1.273-.531 2.099.071.826.601 1.226 1.542.893 2.103-.333.561-1.27.531-2.096-.071zM6.577 40.873c-.897-.504-1.323-1.344-.954-1.874.369-.531 1.401-.551 2.297-.044.897.507 1.344 1.344.954 1.874-.39.531-1.401.551-2.297.044zM14.991 36.214c-.82-.611-1.209-1.558-.87-2.116.339-.558 1.276-.511 2.096.101.82.611 1.209 1.558.87 2.113-.339.554-1.276.514-2.096-.097zM41.777 29.423c-.877.887-1.982 1.125-2.475.534-.494-.591-.181-1.797.692-2.687.873-.89 1.982-1.129 2.475-.534.494.595.181 1.8-.692 2.687zM32.258 36.748c-1.186 0-2.146-.672-2.146-1.461s.961-1.458 2.146-1.458c1.186 0 2.15.672 2.15 1.458 0 .786-.964 1.461-2.15 1.461zM11.004 29.936c-1.008.692-2.136.699-2.519 0s.121-1.8 1.132-2.492 2.133-.702 2.519 0c.386.702-.124 1.797-1.132 2.492z"
              stroke="#A0D0FC"/>
        <path d="M29.776 26.961c-3.097-1.673-6.861-1.522-9.814.393-.497.324-.816.861-.862 1.453-.047.592.184 1.172.624 1.57l.027.027c.648.594 1.616.673 2.351.191 1.75-1.117 3.965-1.204 5.797-.228.771.405 1.718.241 2.307-.4l.034-.037c.401-.429.582-1.018.492-1.598-.091-.58-.443-1.086-.955-1.372zM37.663 42.028c3.518-.152 6.673-2.213 8.226-5.374.25-.53.243-1.146-.019-1.67s-.75-.899-1.324-1.017h-.037c-.86-.176-1.731.25-2.119 1.038-.926 1.858-2.783 3.07-4.857 3.171-.875.036-1.615.661-1.797 1.518v.047c-.116.571.035 1.164.411 1.61.376.446.935.695 1.517.677z"
              stroke="#A0D0FC" stroke-linecap="round"/>
    </g>
</svg>
