<svg width="50" height="50" viewBox="0 0 50 50" xmlns="http://www.w3.org/2000/svg">
    <g fill="none">
        <path d="M35.023 23.578c-.07-.217-.258-.374-.484-.404l-3.107-.359-.593-3.056c-.043-.234-.221-.42-.453-.472-.232-.053-.473.037-.613.229l-1.496 2.018c-.772-1.041-1.989-2.146-3.895-3.293-.301-.183-.589-.362-.868-.545 8.636-6.355 5.596-12.127 5.452-12.377-.17-.267-.517-.356-.794-.204-.277.153-.388.494-.253.78.183.377.313.778.384 1.192h-11.682c.066-.418.194-.824.381-1.204.113-.281-.003-.602-.269-.746-.266-.144-.598-.066-.772.183-.151.25-3.203 6.022 5.445 12.377-.279.183-.567.362-.868.545-3.594 2.165-5.195 4.391-5.195 7.217 0 1.899.589 4.44 5.195 7.217.301.179.589.362.868.541-8.648 6.355-5.596 12.143-5.445 12.39.099.195.3.319.519.32.101-.001.2-.026.288-.074.289-.16.394-.524.234-.814-.243-.503-.392-1.045-.442-1.602h11.804c-.052.556-.203 1.099-.445 1.602-.135.286-.024.628.253.78.277.153.625.063.794-.204.144-.263 3.184-6.035-5.445-12.39.279-.179.567-.362.868-.541.948-.559 1.839-1.21 2.659-1.944l.083.426c.045.231.222.414.452.468h.135c.189 0 .366-.091.477-.243l1.861-2.489 2.944 1.015c.223.075.47.013.63-.16.16-.173.204-.424.113-.641l-1.236-2.857 2.354-2.04c.177-.162.241-.414.163-.641zm-1.953 2.2c-.337.287-.447.76-.272 1.166l.905 2.094c.14.325-.009.702-.334.842-.147.063-.312.07-.463.018l-2.152-.742c-.419-.149-.887-.005-1.15.354l-.921 1.237-.448.603c-.211.284-.612.343-.896.132-.127-.095-.215-.233-.246-.389l-.262-1.311-.191-.97c-.084-.434-.438-.764-.877-.817l-2.216-.243c-.352-.039-.605-.355-.567-.707.018-.16.095-.308.217-.414l1.711-1.486c.336-.29.446-.763.272-1.171l-.905-2.093c-.14-.325.009-.702.334-.842.147-.063.312-.07.463-.018l2.129.735c.419.141.882-.001 1.15-.354l.583-.774.767-1.046c.209-.285.61-.347.895-.138.13.095.219.236.25.395l.43 2.222c.083.435.438.766.877.817l2.283.265c.351.041.603.359.563.71-.018.157-.094.302-.212.406l-1.718 1.517zm-4.864-15.995h-11.49c-.122-.494-.187-1-.195-1.509h11.88c-.008.509-.074 1.015-.195 1.509zm-.394 1.195c-.222.525-.49 1.03-.801 1.509h-9.1c-.312-.478-.58-.983-.801-1.509h10.702zm-9.017 2.703h7.332c-1.075 1.256-2.308 2.367-3.668 3.306-1.36-.938-2.592-2.049-3.664-3.306zm-2.242 28.559c.042-.512.138-1.018.288-1.509h11.256c.149.491.244.997.285 1.509h-11.829zm.753-2.703c.255-.528.554-1.034.894-1.512h8.552c.341.477.64.983.894 1.512h-10.34zm8.488-2.707h-6.653c.995-1.086 2.108-2.059 3.318-2.899 1.21.84 2.323 1.812 3.318 2.899h.016zm-2.031-5.179c-.457.278-.892.554-1.304.83-.413-.275-.846-.551-1.304-.83-.853-.502-1.657-1.084-2.399-1.739h3.655c.313-.023.555-.284.555-.597 0-.314-.242-.574-.555-.597h-4.529l-.215.042c-.367-.468-.657-.992-.862-1.55h4.158c.313-.023.555-.284.555-.597 0-.314-.242-.574-.555-.597h-4.404c-.016-.192-.022-.378-.022-.554-.002-.331.025-.661.08-.987l.176.029h5.003c.313-.023.555-.284.555-.597 0-.314-.242-.574-.555-.597h-4.805c.256-.548.591-1.057.993-1.509h4.484c.224.016.438-.094.555-.285.117-.192.117-.432 0-.624s-.331-.302-.555-.285h-3.242c.608-.491 1.25-.939 1.922-1.339.458-.275.89-.554 1.304-.83.41.28.845.556 1.304.83 1.115.641 2.134 1.436 3.027 2.361l-1.81-.609c-.226-.083-.479-.021-.641.157-.159.173-.203.424-.112.641l1.236 2.857-2.351 2.037c-.18.154-.251.4-.182.627.069.227.267.39.502.417l3.104.349.237 1.217c-.889.912-1.9 1.697-3.005 2.332z"
              fill="#294C80" fill-rule="nonzero"/>
        <path d="M33.07 25.778c-.337.287-.447.76-.272 1.166l.905 2.094c.14.325-.009.702-.334.842-.147.063-.312.07-.463.018l-2.152-.742c-.419-.149-.887-.005-1.15.354l-.921 1.237-.448.603c-.211.284-.612.343-.896.132-.127-.095-.215-.233-.246-.389l-.262-1.311-.191-.97c-.084-.434-.438-.764-.877-.817l-2.216-.243c-.352-.039-.605-.355-.567-.707.018-.16.095-.308.217-.414l1.711-1.486c.336-.29.446-.763.272-1.171l-.905-2.093c-.14-.325.009-.702.334-.842.147-.063.312-.07.463-.018l2.129.735c.419.141.882-.001 1.15-.354l.583-.774.767-1.046c.209-.285.61-.347.895-.138.13.095.219.236.25.395l.43 2.222c.083.435.438.766.877.817l2.283.265c.351.041.603.359.563.71-.018.157-.094.302-.212.406l-1.718 1.517zm-1.536-.122l1.746-1.542-2.318-.269c-.275-.032-.496-.239-.548-.51l-.442-2.287-1.021 1.392-.364.483c-.167.22-.456.309-.718.221l-2.188-.756.926 2.141c.109.255.04.551-.17.732l-1.76 1.528 2.294.252c.274.033.495.24.548.51l.119.606.34 1.702.817-1.099.575-.773c.164-.224.456-.314.718-.221l2.202.759-.926-2.141c-.109-.254-.04-.549.17-.728z"
              fill="#A0D0FC"/>
    </g>
</svg>
